<?xml version="1.0" standalone="no"?><svg xmlns="http://www.w3.org/2000/svg" viewBox="0 0 1440 320"><path fill="#93de8b" fill-opacity="1" d="M0,256L13.3,245.3C26.7,235,53,213,80,192C106.7,171,133,149,160,149.3C186.7,149,213,171,240,176C266.7,181,293,171,320,144C346.7,117,373,75,400,69.3C426.7,64,453,96,480,133.3C506.7,171,533,213,560,213.3C586.7,213,613,171,640,154.7C666.7,139,693,149,720,170.7C746.7,192,773,224,800,245.3C826.7,267,853,277,880,266.7C906.7,256,933,224,960,181.3C986.7,139,1013,85,1040,85.3C1066.7,85,1093,139,1120,144C1146.7,149,1173,107,1200,112C1226.7,117,1253,171,1280,170.7C1306.7,171,1333,117,1360,128C1386.7,139,1413,213,1427,250.7L1440,288L1440,320L1426.7,320C1413.3,320,1387,320,1360,320C1333.3,320,1307,320,1280,320C1253.3,320,1227,320,1200,320C1173.3,320,1147,320,1120,320C1093.3,320,1067,320,1040,320C1013.3,320,987,320,960,320C933.3,320,907,320,880,320C853.3,320,827,320,800,320C773.3,320,747,320,720,320C693.3,320,667,320,640,320C613.3,320,587,320,560,320C533.3,320,507,320,480,320C453.3,320,427,320,400,320C373.3,320,347,320,320,320C293.3,320,267,320,240,320C213.3,320,187,320,160,320C133.3,320,107,320,80,320C53.3,320,27,320,13,320L0,320Z"></path></svg>